<?xml version="1.0" encoding="UTF-8"?>
<!DOCTYPE svg PUBLIC "-//W3C//DTD SVG 1.1//EN" "http://www.w3.org/Graphics/SVG/1.1/DTD/svg11.dtd">
<svg xmlns="http://www.w3.org/2000/svg" version="1.1" width="691px" height="137px" style="shape-rendering:geometricPrecision; text-rendering:geometricPrecision; image-rendering:optimizeQuality; fill-rule:evenodd; clip-rule:evenodd" xmlns:xlink="http://www.w3.org/1999/xlink">
<g><path style="opacity:0.816" fill="#fefffe" d="M 110.5,-0.5 C 111.167,-0.5 111.833,-0.5 112.5,-0.5C 113.504,0.682751 114.338,2.01608 115,3.5C 115.249,2.37598 115.749,1.37598 116.5,0.5C 124.46,7.40773 129.627,16.0744 132,26.5C 136.887,42.5316 138.72,58.865 137.5,75.5C 136.042,72.6277 134.875,69.6277 134,66.5C 131.144,49.2188 127.144,32.2188 122,15.5C 121.444,13.4049 120.944,13.2382 120.5,15C 122.388,20.0537 123.888,25.2204 125,30.5C 127.685,48.2952 131.018,65.9619 135,83.5C 136.949,91.3985 140.449,98.3985 145.5,104.5C 145.328,105.492 145.662,106.158 146.5,106.5C 146.5,107.167 146.833,107.5 147.5,107.5C 147.5,108.167 147.833,108.5 148.5,108.5C 148.5,109.167 148.833,109.5 149.5,109.5C 149.5,110.167 149.833,110.5 150.5,110.5C 150.5,111.167 150.833,111.5 151.5,111.5C 153.109,112.898 153.942,114.565 154,116.5C 141,109.199 132.834,98.1993 129.5,83.5C 124.463,84.9514 119.296,85.6181 114,85.5C 108.483,85.0863 102.983,84.9196 97.5,85C 92.2509,94.6644 87.4176,104.498 83,114.5C 82.6667,111.5 82.3333,108.5 82,105.5C 81.5045,107.473 81.3379,109.473 81.5,111.5C 80.5,111.5 79.5,111.5 78.5,111.5C 77.4638,103.735 78.1304,96.0681 80.5,88.5C 80.3333,87.8333 80.1667,87.1667 80,86.5C 78.9302,89.8765 77.7635,93.2098 76.5,96.5C 74.9943,90.5529 75.661,84.8862 78.5,79.5C 74.9683,80.8539 71.8016,82.8539 69,85.5C 68.4054,84.1011 68.5721,82.7678 69.5,81.5C 68.8333,80.8333 68.1667,80.1667 67.5,79.5C 69.6404,76.1927 71.9737,73.026 74.5,70C 78.0838,67.9586 81.5838,65.792 85,63.5C 92.2283,46.7042 100.728,30.7042 110.5,15.5C 110.833,16 111.167,16.5 111.5,17C 107.158,33.3642 100.491,48.6976 91.5,63C 92.4491,63.6172 93.2825,63.4506 94,62.5C 97.5038,56.1559 101.504,50.1559 106,44.5C 105.503,50.8306 103.67,56.8306 100.5,62.5C 101.002,63.521 101.668,63.6877 102.5,63C 110.29,51.0848 115.29,38.0848 117.5,24C 117.138,22.7753 116.638,21.6086 116,20.5C 115.881,24.01 114.714,27.01 112.5,29.5C 112.385,21.5539 112.218,13.5539 112,5.5C 111.187,3.56429 110.687,1.56429 110.5,-0.5 Z M 119.5,38.5 C 121.803,47.2457 123.469,56.2457 124.5,65.5C 119.425,65.4073 114.425,64.7406 109.5,63.5C 113.683,55.4728 117.017,47.1395 119.5,38.5 Z M 78.5,79.5 C 80.5901,77.6098 82.9235,75.9431 85.5,74.5C 82.5274,73.4911 79.5274,73.4911 76.5,74.5C 82.5801,70.3081 89.4134,68.3081 97,68.5C 106.842,69.5727 116.676,70.7394 126.5,72C 115.818,72.1676 105.151,72.6676 94.5,73.5C 104.702,78.1479 115.368,79.8145 126.5,78.5C 127.308,78.8076 127.975,79.3076 128.5,80C 116.461,80.4947 104.461,79.9947 92.5,78.5C 87.7987,78.592 83.132,78.9254 78.5,79.5 Z"/></g>
<g><path style="opacity:0.815" fill="#fefffe" d="M 539.5,-0.5 C 540.167,-0.5 540.833,-0.5 541.5,-0.5C 542.026,1.23033 543.026,2.56366 544.5,3.5C 544.328,4.49162 544.662,5.15829 545.5,5.5C 545.328,6.49162 545.662,7.15829 546.5,7.5C 546.328,8.49162 546.662,9.15829 547.5,9.5C 547.263,10.791 547.596,11.791 548.5,12.5C 548.328,13.4916 548.662,14.1583 549.5,14.5C 554.452,38.3252 559.452,62.1585 564.5,86C 566.589,91.6785 569.089,97.1785 572,102.5C 572.654,103.696 573.154,103.696 573.5,102.5C 571.04,98.34 570.04,94.0067 570.5,89.5C 573.177,93.5286 575.844,97.5286 578.5,101.5C 580.539,106.378 583.873,110.212 588.5,113C 588,113.5 587.5,114 587,114.5C 585.266,113.362 583.432,112.862 581.5,113C 583.007,113.837 583.507,115.004 583,116.5C 577.777,113.943 573.11,110.609 569,106.5C 564.242,99.4844 560.409,91.9844 557.5,84C 547.28,85.6593 536.947,85.9926 526.5,85C 520.83,94.5059 515.83,104.339 511.5,114.5C 510.692,112.577 510.192,110.577 510,108.5C 509.418,111.668 508.418,112.001 507,109.5C 506.508,102.417 506.842,95.4167 508,88.5C 507.311,91.4081 506.145,94.0748 504.5,96.5C 503.738,90.7208 504.405,85.0541 506.5,79.5C 503.357,81.2417 500.357,83.2417 497.5,85.5C 496.777,83.8361 497.11,82.1694 498.5,80.5C 497.833,80.1667 497.167,79.8333 496.5,79.5C 499.95,72.2154 505.45,67.2154 513,64.5C 520.379,47.4059 529.045,31.0726 539,15.5C 538.935,21.7152 537.602,27.7152 535,33.5C 530.694,43.4455 525.861,53.1122 520.5,62.5C 521.167,63.8333 521.833,63.8333 522.5,62.5C 526.082,56.0863 530.249,50.0863 535,44.5C 534.151,51.0517 531.984,57.2183 528.5,63C 529.5,63.6667 530.5,63.6667 531.5,63C 539.051,51.1788 543.717,38.3454 545.5,24.5C 545.333,22.5 545.167,20.5 545,18.5C 544.596,22.4609 543.43,26.1275 541.5,29.5C 540.561,24.1945 540.561,18.8611 541.5,13.5C 541.152,8.7774 540.485,4.11073 539.5,-0.5 Z M 548.5,37.5 C 550.153,46.7074 551.82,56.0408 553.5,65.5C 548.141,65.3303 542.808,64.8303 537.5,64C 542.143,55.5504 545.81,46.7171 548.5,37.5 Z M 506.5,79.5 C 509.274,77.9363 511.941,76.103 514.5,74C 511.469,73.5046 508.469,73.6713 505.5,74.5C 509.259,71.6257 513.593,69.7924 518.5,69C 530.58,68.772 542.58,69.772 554.5,72C 544.151,72.1677 533.817,72.6677 523.5,73.5C 527.824,75.9174 532.491,77.4174 537.5,78C 543.969,79.1843 550.302,79.6843 556.5,79.5C 539.854,78.7746 523.187,78.7746 506.5,79.5 Z M 518.5,85.5 C 518.598,87.5529 517.931,89.2196 516.5,90.5C 516.402,88.4471 517.069,86.7804 518.5,85.5 Z"/></g>
<g><path style="opacity:0.804" fill="#fefffe" d="M 33.5,83.5 C 34.4916,83.6716 35.1583,83.3382 35.5,82.5C 51.6306,76.3496 63.1306,65.3496 70,49.5C 73.5634,38.5452 72.2301,28.2119 66,18.5C 63.8943,15.8823 61.3943,13.8823 58.5,12.5C 70.197,23.609 72.697,36.609 66,51.5C 64.907,53.3492 63.5737,55.0158 62,56.5C 61.4484,53.5808 62.1151,50.9141 64,48.5C 67.796,30.9203 61.296,19.0869 44.5,13C 34.8439,11.0772 25.1772,11.0772 15.5,13C 12.135,13.5053 9.13501,14.672 6.5,16.5C 1.57761,16.8896 1.24428,15.7229 5.5,13C 17.0543,6.88863 29.3876,4.22196 42.5,5C 34.8468,3.49573 27.1801,3.1624 19.5,4C 38.4743,-2.88201 55.3077,0.617988 70,14.5C 83.3919,41.0164 77.5586,62.5164 52.5,79C 46.3737,83.0443 39.7071,85.0443 32.5,85C 33.056,84.6174 33.3893,84.1174 33.5,83.5 Z M 51.5,8.5 C 53.3797,8.22911 54.713,8.89578 55.5,10.5C 53.847,10.3404 52.5137,9.67373 51.5,8.5 Z M 55.5,10.5 C 57.0269,10.427 58.0269,11.0937 58.5,12.5C 56.9731,12.573 55.9731,11.9063 55.5,10.5 Z"/></g>
<g><path style="opacity:0.804" fill="#fefffe" d="M 549.5,14.5 C 549.672,13.5084 549.338,12.8417 548.5,12.5C 548.737,11.209 548.404,10.209 547.5,9.5C 547.672,8.50838 547.338,7.84171 546.5,7.5C 546.672,6.50838 546.338,5.84171 545.5,5.5C 545.672,4.50838 545.338,3.84171 544.5,3.5C 544.351,2.44802 544.517,1.44802 545,0.5C 547.292,1.78987 549.292,3.45654 551,5.5C 559.541,19.9819 564.541,35.6486 566,52.5C 567.405,60.1602 567.572,67.8269 566.5,75.5C 565.416,74.3349 564.583,73.0016 564,71.5C 560.667,56.1692 557.334,40.8359 554,25.5C 552.962,21.5317 551.462,17.865 549.5,14.5 Z"/></g>
<g><path style="opacity:0.811" fill="#fefffe" d="M 595.5,86.5 C 596.931,85.2196 597.598,83.5529 597.5,81.5C 598.338,81.1583 598.672,80.4916 598.5,79.5C 599.338,79.1583 599.672,78.4916 599.5,77.5C 604.533,67.1024 609.867,56.769 615.5,46.5C 616.224,49.4512 616.057,52.4512 615,55.5C 611.599,65.5989 608.266,75.5989 605,85.5C 614.527,68.2512 620.861,49.9179 624,30.5C 624.664,23.4586 624.331,16.4586 623,9.5C 622.83,16.2299 622.163,22.8966 621,29.5C 620.333,30.8333 619.667,30.8333 619,29.5C 618.917,20.7469 618.084,12.0803 616.5,3.5C 616.833,2.83333 617.167,2.16667 617.5,1.5C 618.892,2.60531 620.059,3.93864 621,5.5C 620.737,4.04943 620.904,2.7161 621.5,1.5C 629.199,9.56955 633.699,19.2362 635,30.5C 635.667,38.8333 635.667,47.1667 635,55.5C 634.855,59.0373 634.022,62.3706 632.5,65.5C 630.258,55.6529 629.091,45.6529 629,35.5C 627.198,48.1829 627.198,60.8496 629,73.5C 630.211,79.1323 632.211,84.4657 635,89.5C 634.047,85.6028 633.713,81.6028 634,77.5C 636.452,80.7611 638.619,84.0944 640.5,87.5C 640.328,88.4916 640.662,89.1583 641.5,89.5C 641.328,90.4916 641.662,91.1583 642.5,91.5C 643.596,95.2887 644.263,95.2887 644.5,91.5C 652.348,74.8121 661.514,58.8121 672,43.5C 677.348,32.7584 679.348,21.425 678,9.5C 677.625,14.2101 676.958,18.8768 676,23.5C 675.804,25.2861 674.971,26.6195 673.5,27.5C 673.894,18.458 673.394,9.45799 672,0.5C 673.667,1.5 675,2.83333 676,4.5C 676.086,0.514214 677.42,0.514214 680,4.5C 685.254,27.7159 684.254,50.7159 677,73.5C 676.692,74.3081 676.192,74.9747 675.5,75.5C 675.167,73 674.833,70.5 674.5,68C 675.131,61.1377 675.631,54.3043 676,47.5C 669.813,65.0031 669.146,82.6697 674,100.5C 673.814,96.5159 673.814,92.5159 674,88.5C 674.667,87.1667 675.333,87.1667 676,88.5C 677.365,96.4338 680.199,103.767 684.5,110.5C 684.167,110.833 683.833,111.167 683.5,111.5C 682.5,110.833 681.5,110.167 680.5,109.5C 679.742,110.811 678.742,111.311 677.5,111C 668.79,102.383 664.456,91.8832 664.5,79.5C 665.296,74.8426 665.463,70.1759 665,65.5C 656.291,77.552 649.291,90.552 644,104.5C 643.814,102.1 643.314,99.7662 642.5,97.5C 642.167,98.1667 641.833,98.8333 641.5,99.5C 632.506,94.3271 626.673,86.6605 624,76.5C 623.167,72.5 622.333,68.5 621.5,64.5C 613.167,82.5 604.833,100.5 596.5,118.5C 595.878,114.874 595.711,111.207 596,107.5C 594.003,115.457 592.503,115.291 591.5,107C 592.388,100.059 593.722,93.226 595.5,86.5 Z M 642.5,91.5 C 643.167,91.5 643.833,91.5 644.5,91.5C 644.263,95.2887 643.596,95.2887 642.5,91.5 Z"/></g>
<g><path style="opacity:0.778" fill="#fefffe" d="M 278.5,1.5 C 280.604,1.2011 282.604,1.53443 284.5,2.5C 267.317,8.52253 260.817,20.5225 265,38.5C 267.748,51.4045 269.914,64.4045 271.5,77.5C 271.316,85.8939 268.316,93.0606 262.5,99C 259.783,101.076 256.783,101.743 253.5,101C 259.232,97.609 263.065,92.7756 265,86.5C 265.667,80.1667 265.667,73.8333 265,67.5C 263.333,58.5 261.667,49.5 260,40.5C 256.67,26.5035 260.17,14.6702 270.5,5C 273.158,3.52203 275.825,2.35537 278.5,1.5 Z"/></g>
<g><path style="opacity:0.787" fill="#fefffe" d="M 323.5,20.5 C 322.539,22.2646 322.205,24.2646 322.5,26.5C 321.549,27.9187 321.216,29.5853 321.5,31.5C 314.528,49.1095 310.195,67.4428 308.5,86.5C 308.521,91.2227 309.021,95.8894 310,100.5C 310.012,95.3063 310.845,90.3063 312.5,85.5C 313.706,94.3431 315.706,103.01 318.5,111.5C 316.671,112.282 315.171,111.616 314,109.5C 313.667,110.5 313.333,111.5 313,112.5C 307.914,107.594 304.914,101.594 304,94.5C 303.333,87.8333 303.333,81.1667 304,74.5C 308.253,56.4046 312.92,38.4046 318,20.5C 319.186,14.1973 320.186,7.86397 321,1.5C 323.178,7.62439 324.011,13.9577 323.5,20.5 Z"/></g>
<g><path style="opacity:0.791" fill="#fefffe" d="M 436.5,81.5 C 444.272,88.7702 451.938,96.2702 459.5,104C 464.77,108.451 470.77,111.284 477.5,112.5C 476.105,111.352 476.272,110.352 478,109.5C 480.694,110.883 483.527,111.383 486.5,111C 481.338,109.166 476.672,106.499 472.5,103C 464.5,95 456.5,87 448.5,79C 445.205,76.566 441.538,74.8993 437.5,74C 445.933,69.9689 454.433,66.1355 463,62.5C 462.805,64.745 461.638,66.5784 459.5,68C 456.328,69.6966 453.328,71.5299 450.5,73.5C 462.914,70.2128 473.081,63.5462 481,53.5C 491.301,28.0591 482.801,12.5591 455.5,7C 449.651,6.18163 443.985,6.3483 438.5,7.5C 451.437,6.60527 463.437,9.4386 474.5,16C 484.854,25.5463 486.188,36.2129 478.5,48C 477.668,48.6877 477.002,48.521 476.5,47.5C 481.654,33.8017 477.654,23.6351 464.5,17C 449.588,11.9318 434.921,12.5984 420.5,19C 418.907,19.9487 417.574,21.1154 416.5,22.5C 415.5,22.5 414.5,22.5 413.5,22.5C 413.88,20.302 413.213,18.6354 411.5,17.5C 411.573,15.9731 410.906,14.9731 409.5,14.5C 409.5,13.8333 409.167,13.5 408.5,13.5C 408.5,12.8333 408.167,12.5 407.5,12.5C 407.158,11.6618 406.492,11.3284 405.5,11.5C 405.5,10.8333 405.167,10.5 404.5,10.5C 404.158,9.66175 403.492,9.32842 402.5,9.5C 402.158,8.66175 401.492,8.32842 400.5,8.5C 399.791,7.59603 398.791,7.26269 397.5,7.5C 392.833,6.16667 388.167,6.16667 383.5,7.5C 381.102,7.25939 379.102,7.92606 377.5,9.5C 376.508,9.32842 375.842,9.66175 375.5,10.5C 374.508,10.3284 373.842,10.6618 373.5,11.5C 372.508,11.3284 371.842,11.6618 371.5,12.5C 370.833,12.5 370.5,12.8333 370.5,13.5C 369.508,13.3284 368.842,13.6618 368.5,14.5C 367.833,14.5 367.5,14.8333 367.5,15.5C 366.833,15.5 366.5,15.8333 366.5,16.5C 365.833,16.5 365.5,16.8333 365.5,17.5C 364.833,17.5 364.5,17.8333 364.5,18.5C 363.833,18.5 363.5,18.8333 363.5,19.5C 362.833,19.5 362.5,19.8333 362.5,20.5C 361.833,20.5 361.5,20.8333 361.5,21.5C 360.833,21.5 360.5,21.8333 360.5,22.5C 359.833,22.5 359.5,22.8333 359.5,23.5C 358.662,23.8417 358.328,24.5084 358.5,25.5C 357.094,25.9731 356.427,26.9731 356.5,28.5C 355.662,28.8417 355.328,29.5084 355.5,30.5C 350.495,37.9969 347.329,46.3302 346,55.5C 342.631,70.9347 344.631,85.6014 352,99.5C 357.62,106.228 364.787,110.228 373.5,111.5C 356.435,112.195 345.602,104.195 341,87.5C 334.731,56.7192 342.898,30.5525 365.5,9C 380.231,-0.847864 394.897,-0.847864 409.5,9C 412.037,11.9063 414.204,15.073 416,18.5C 420.502,13.6635 426.002,10.4968 432.5,9C 431.167,8.66667 429.833,8.33333 428.5,8C 432.072,5.36335 436.072,3.69669 440.5,3C 458.9,-0.20012 474.4,4.96655 487,18.5C 497.444,43.807 489.944,61.9737 464.5,73C 460.494,74.1679 456.494,75.3346 452.5,76.5C 466.089,86.0877 478.089,97.4211 488.5,110.5C 491.447,111.321 494.447,111.821 497.5,112C 496.672,112.915 495.672,113.581 494.5,114C 496.797,115.16 496.464,116.16 493.5,117C 478.885,120.018 465.885,116.685 454.5,107C 447,99.5 439.5,92 432,84.5C 429.733,89.8045 427.566,95.1378 425.5,100.5C 424.438,94.1098 424.772,87.7765 426.5,81.5C 419.788,77.8406 420.454,76.674 428.5,78C 431.071,79.4538 433.738,80.6205 436.5,81.5 Z M 438.5,7.5 C 443.985,6.3483 449.651,6.18163 455.5,7C 482.801,12.5591 491.301,28.0591 481,53.5C 473.081,63.5462 462.914,70.2128 450.5,73.5C 453.328,71.5299 456.328,69.6966 459.5,68C 461.638,66.5784 462.805,64.745 463,62.5C 454.433,66.1355 445.933,69.9689 437.5,74C 441.538,74.8993 445.205,76.566 448.5,79C 456.5,87 464.5,95 472.5,103C 476.672,106.499 481.338,109.166 486.5,111C 483.527,111.383 480.694,110.883 478,109.5C 476.272,110.352 476.105,111.352 477.5,112.5C 470.77,111.284 464.77,108.451 459.5,104C 451.938,96.2702 444.272,88.7702 436.5,81.5C 438.255,82.0722 439.922,82.9055 441.5,84C 449.722,91.2267 458.222,98.06 467,104.5C 467.5,104.167 468,103.833 468.5,103.5C 462.427,94.9222 455.427,87.0888 447.5,80C 443.286,77.7263 438.953,75.7263 434.5,74C 445.61,69.1975 455.944,63.1975 465.5,56C 480.786,42.623 480.119,30.2897 463.5,19C 447.382,13.8167 431.715,14.9834 416.5,22.5C 417.574,21.1154 418.907,19.9487 420.5,19C 434.921,12.5984 449.588,11.9318 464.5,17C 477.654,23.6351 481.654,33.8017 476.5,47.5C 477.002,48.521 477.668,48.6877 478.5,48C 486.188,36.2129 484.854,25.5463 474.5,16C 463.437,9.4386 451.437,6.60527 438.5,7.5 Z M 383.5,7.5 C 381.786,8.73838 379.786,9.40505 377.5,9.5C 379.102,7.92606 381.102,7.25939 383.5,7.5 Z M 409.5,14.5 C 410.906,14.9731 411.573,15.9731 411.5,17.5C 410.094,17.0269 409.427,16.0269 409.5,14.5 Z M 411.5,17.5 C 413.213,18.6354 413.88,20.302 413.5,22.5C 412.463,21.0697 411.796,19.403 411.5,17.5 Z M 413.5,22.5 C 414.5,22.5 415.5,22.5 416.5,22.5C 415.26,24.9845 414.26,24.9845 413.5,22.5 Z M 358.5,25.5 C 358.573,27.0269 357.906,28.0269 356.5,28.5C 356.427,26.9731 357.094,25.9731 358.5,25.5 Z"/></g>
<g><path style="opacity:0.788" fill="#fefffe" d="M 186.5,72.5 C 194.545,69.371 202.545,66.0377 210.5,62.5C 211.521,63.0016 211.688,63.6683 211,64.5C 207.266,67.9517 203.1,70.785 198.5,73C 215.179,69.3279 226.679,59.4946 233,43.5C 235.58,29.4987 230.747,18.9987 218.5,12C 208.188,6.89562 197.521,5.39562 186.5,7.5C 184.265,7.20528 182.265,7.53862 180.5,8.5C 179.209,8.26269 178.209,8.59603 177.5,9.5C 176.355,8.20734 176.689,7.04067 178.5,6C 199.555,-1.87117 218.055,1.96217 234,17.5C 245.223,38.7019 240.723,55.8686 220.5,69C 214.18,72.4138 207.513,74.9138 200.5,76.5C 213.485,86.8195 225.485,98.1528 236.5,110.5C 239.447,111.321 242.447,111.821 245.5,112C 244.672,112.915 243.672,113.581 242.5,114C 242.957,114.414 243.291,114.914 243.5,115.5C 234.953,119.289 226.286,119.455 217.5,116C 212.508,113.839 207.841,111.172 203.5,108C 195.652,99.9855 187.652,92.1521 179.5,84.5C 177.633,89.9823 175.466,95.3156 173,100.5C 172.178,93.8587 172.678,87.3587 174.5,81C 167.633,77.9658 167.966,76.9658 175.5,78C 180.662,79.8344 185.328,82.5011 189.5,86C 197.233,94.4031 205.566,102.07 214.5,109C 218.893,111.544 223.56,112.877 228.5,113C 225.895,112.974 224.729,111.807 225,109.5C 228.055,110.778 231.222,111.278 234.5,111C 229.72,109.444 225.387,107.111 221.5,104C 213.167,95.6667 204.833,87.3333 196.5,79C 193.205,76.566 189.538,74.8993 185.5,74C 186.056,73.6174 186.389,73.1174 186.5,72.5 Z"/></g>
<g><path style="opacity:0.798" fill="#fefffe" d="M 240.5,102.5 C 240.5,103.167 240.833,103.5 241.5,103.5C 241.842,104.338 242.508,104.672 243.5,104.5C 243.842,105.338 244.508,105.672 245.5,105.5C 246.209,106.404 247.209,106.737 248.5,106.5C 262.097,110.285 271.597,105.619 277,92.5C 278.862,86.992 279.696,81.3253 279.5,75.5C 278.545,63.4381 277.045,51.4381 275,39.5C 273.709,31.4906 274.709,23.8239 278,16.5C 279.167,15.3333 280.333,14.1667 281.5,13C 286.083,11.8553 290.749,11.1887 295.5,11C 285.66,8.1674 278.493,11.3341 274,20.5C 272.977,24.9317 272.477,29.4317 272.5,34C 273.451,45.8715 274.784,57.7048 276.5,69.5C 276.318,72.2263 275.818,74.8929 275,77.5C 271.563,65.4072 268.896,53.0739 267,40.5C 266.11,33.086 266.443,25.7527 268,18.5C 273.778,5.53669 283.278,1.87002 296.5,7.5C 301.573,9.41325 301.573,10.9133 296.5,12C 299.874,12.521 302.874,13.8543 305.5,16C 301.599,16.2889 297.766,15.7889 294,14.5C 289.411,14.8134 285.411,16.4801 282,19.5C 279.569,25.9487 278.902,32.6154 280,39.5C 282.482,51.5742 284.315,63.7409 285.5,76C 285.877,89.5712 280.877,100.571 270.5,109C 261.062,112.47 251.729,112.136 242.5,108C 240.415,106.959 238.748,105.459 237.5,103.5C 238.325,102.614 239.325,102.281 240.5,102.5 Z"/></g>
<g><path style="opacity:0.83" fill="#fefffe" d="M 321.5,31.5 C 322.451,30.0813 322.784,28.4147 322.5,26.5C 323.461,24.7354 323.795,22.7354 323.5,20.5C 324.326,15.6835 324.826,10.6835 325,5.5C 327.087,7.74521 328.421,10.4119 329,13.5C 329.333,20.1667 329.667,26.8333 330,33.5C 330.671,28.8002 331.504,24.1336 332.5,19.5C 333.192,20.0253 333.692,20.6919 334,21.5C 334.775,29.5476 334.442,37.5476 333,45.5C 329.467,63.7624 324.133,81.4291 317,98.5C 316.311,92.1182 316.645,85.7849 318,79.5C 320.657,67.3637 323.823,55.3637 327.5,43.5C 327.333,42.8333 327.167,42.1667 327,41.5C 324.04,51.8858 320.207,61.8858 315.5,71.5C 314.348,68.8938 314.182,66.2272 315,63.5C 317.489,52.8817 319.655,42.215 321.5,31.5 Z"/></g>
<g><path style="opacity:0.796" fill="#fefffe" d="M 186.5,7.5 C 201.957,6.06623 215.457,10.3996 227,20.5C 233.332,30.2956 232.832,39.6289 225.5,48.5C 229.594,28.3816 221.261,16.8816 200.5,14C 186.818,12.4356 174.152,15.269 162.5,22.5C 161.479,21.9984 161.312,21.3317 162,20.5C 166.127,15.202 171.294,11.5354 177.5,9.5C 178.791,9.73731 179.791,9.40397 180.5,8.5C 182.735,8.79472 184.735,8.46138 186.5,7.5 Z"/></g>
<g><path style="opacity:0.798" fill="#fefffe" d="M 383.5,7.5 C 388.167,7.5 392.833,7.5 397.5,7.5C 398.209,8.40397 399.209,8.73731 400.5,8.5C 400.842,9.33825 401.508,9.67158 402.5,9.5C 402.842,10.3382 403.508,10.6716 404.5,10.5C 405.167,10.5 405.5,10.8333 405.5,11.5C 405.842,12.3382 406.508,12.6716 407.5,12.5C 408.167,12.5 408.5,12.8333 408.5,13.5C 409.167,13.5 409.5,13.8333 409.5,14.5C 409.427,16.0269 410.094,17.0269 411.5,17.5C 411.796,19.403 412.463,21.0697 413.5,22.5C 414.26,24.9845 415.26,24.9845 416.5,22.5C 431.715,14.9834 447.382,13.8167 463.5,19C 480.119,30.2897 480.786,42.623 465.5,56C 455.944,63.1975 445.61,69.1975 434.5,74C 438.953,75.7263 443.286,77.7263 447.5,80C 455.427,87.0888 462.427,94.9222 468.5,103.5C 468,103.833 467.5,104.167 467,104.5C 458.222,98.06 449.722,91.2267 441.5,84C 439.922,82.9055 438.255,82.0722 436.5,81.5C 433.31,79.4058 430.31,77.0725 427.5,74.5C 433.164,57.0298 437.664,39.3632 441,21.5C 442.62,24.9789 443.453,28.6455 443.5,32.5C 442.643,45.0919 439.976,57.2586 435.5,69C 446.086,63.9352 455.92,57.4352 465,49.5C 467.516,46.4656 469.516,43.1323 471,39.5C 469.981,31.4526 465.481,25.9526 457.5,23C 451.239,21.4253 444.906,20.7586 438.5,21C 437.343,39.4405 432.343,56.9405 423.5,73.5C 423.167,72.6667 422.833,71.8333 422.5,71C 425.254,57.4828 428.088,43.9828 431,30.5C 431.667,27.8333 431.667,25.1667 431,22.5C 428.432,37.1059 424.765,51.4392 420,65.5C 416.115,78.4425 415.781,91.4425 419,104.5C 419.479,81.9661 421.146,81.9661 424,104.5C 424.375,107 425.208,109.333 426.5,111.5C 426.167,111.833 425.833,112.167 425.5,112.5C 424.5,111.833 423.5,111.167 422.5,110.5C 422.167,111.167 421.833,111.833 421.5,112.5C 418.785,109.943 416.618,106.943 415,103.5C 410.738,89.8814 410.738,76.2147 415,62.5C 418.439,49.5201 422.272,36.6868 426.5,24C 422.307,24.2281 418.307,25.3947 414.5,27.5C 412.952,31.6514 411.118,35.6514 409,39.5C 406.234,42.9806 402.734,44.4806 398.5,44C 403.397,41.4701 406.231,37.6368 407,32.5C 404.77,38.0718 400.77,41.4051 395,42.5C 393.272,42.5463 391.772,42.0463 390.5,41C 399.549,39.6299 403.715,34.4632 403,25.5C 398.15,20.1625 392.317,18.6625 385.5,21C 377.806,24.0257 371.972,29.1923 368,36.5C 357.324,54.9585 355.991,73.9585 364,93.5C 369.182,98.3938 375.349,100.394 382.5,99.5C 386.973,85.5826 391.139,71.5826 395,57.5C 396.224,62.3859 396.891,67.3859 397,72.5C 397.333,68.5 397.667,64.5 398,60.5C 399.385,61.5505 400.385,62.8839 401,64.5C 402.304,70.4229 402.804,76.4229 402.5,82.5C 401.596,83.209 401.263,84.209 401.5,85.5C 400.596,86.209 400.263,87.209 400.5,88.5C 397.558,95.718 394.058,102.718 390,109.5C 389.333,106.833 389.333,104.167 390,101.5C 391.575,95.1362 392.909,88.8028 394,82.5C 390.934,90.3634 388.268,98.3634 386,106.5C 384.946,113.698 385.612,120.698 388,127.5C 387.827,112.945 389.493,112.945 393,127.5C 394.5,129.833 396,132.167 397.5,134.5C 396.349,135.731 395.183,135.731 394,134.5C 393.536,135.094 393.369,135.761 393.5,136.5C 392.833,136.5 392.167,136.5 391.5,136.5C 382.891,129.611 378.891,120.611 379.5,109.5C 375.418,109.656 371.418,109.156 367.5,108C 365.003,107.588 363.003,106.422 361.5,104.5C 362.167,104.167 362.833,103.833 363.5,103.5C 367.833,104.167 372.167,104.833 376.5,105.5C 378.441,105.196 380.107,104.363 381.5,103C 365.788,104.378 356.621,97.211 354,81.5C 351.255,59.2914 357.088,39.7914 371.5,23C 380.743,14.7671 391.076,12.7671 402.5,17C 391.965,11.7124 381.965,12.7124 372.5,20C 360.833,31.1608 353.166,44.6608 349.5,60.5C 348.656,56.5197 348.823,52.5197 350,48.5C 351.338,42.3206 353.172,36.3206 355.5,30.5C 356.338,30.1583 356.672,29.4916 356.5,28.5C 357.906,28.0269 358.573,27.0269 358.5,25.5C 359.338,25.1583 359.672,24.4916 359.5,23.5C 360.167,23.5 360.5,23.1667 360.5,22.5C 361.167,22.5 361.5,22.1667 361.5,21.5C 362.167,21.5 362.5,21.1667 362.5,20.5C 363.167,20.5 363.5,20.1667 363.5,19.5C 364.167,19.5 364.5,19.1667 364.5,18.5C 365.167,18.5 365.5,18.1667 365.5,17.5C 366.167,17.5 366.5,17.1667 366.5,16.5C 367.167,16.5 367.5,16.1667 367.5,15.5C 368.167,15.5 368.5,15.1667 368.5,14.5C 369.492,14.6716 370.158,14.3382 370.5,13.5C 371.167,13.5 371.5,13.1667 371.5,12.5C 372.492,12.6716 373.158,12.3382 373.5,11.5C 374.492,11.6716 375.158,11.3382 375.5,10.5C 376.492,10.6716 377.158,10.3382 377.5,9.5C 379.786,9.40505 381.786,8.73838 383.5,7.5 Z M 411.5,17.5 C 413.213,18.6354 413.88,20.302 413.5,22.5C 412.463,21.0697 411.796,19.403 411.5,17.5 Z M 413.5,22.5 C 414.5,22.5 415.5,22.5 416.5,22.5C 415.26,24.9845 414.26,24.9845 413.5,22.5 Z"/></g>
<g><path style="opacity:0.792" fill="#fefffe" d="M 35.5,82.5 C 34.5084,82.3284 33.8417,82.6618 33.5,83.5C 28.8967,85.4247 24.23,87.2581 19.5,89C 18.0741,92.5451 16.5741,96.0451 15,99.5C 14.6667,96.5 14.3333,93.5 14,90.5C 11.9974,97.7041 12.8308,104.704 16.5,111.5C 16.1667,111.833 15.8333,112.167 15.5,112.5C 14.4822,111.807 13.4822,111.141 12.5,110.5C 12.2172,111.289 11.7172,111.956 11,112.5C 4.46545,104.565 1.29878,95.3985 1.5,85C 2.07039,77.4107 3.23706,69.9107 5,62.5C 9.5841,48.0854 13.7508,33.5854 17.5,19C 11.7718,18.9728 6.27183,20.1395 1,22.5C 0.617425,21.944 0.117425,21.6107 -0.5,21.5C -0.5,21.1667 -0.5,20.8333 -0.5,20.5C 2.03158,19.4043 4.36491,18.0709 6.5,16.5C 17.6585,13.0209 28.9918,12.1875 40.5,14C 57.2409,17.9695 64.0742,28.4695 61,45.5C 56.2177,56.9022 48.7177,66.0689 38.5,73C 30.9955,77.5865 23.3288,81.9199 15.5,86C 19.5995,85.3003 23.5995,83.9669 27.5,82C 33.7552,77.5389 40.4219,74.2056 47.5,72C 43.9244,76.0816 39.9244,79.5816 35.5,82.5 Z M 23.5,77.5 C 26.8032,64.6187 29.6365,51.6187 32,38.5C 32.9095,33.3356 32.4095,28.3356 30.5,23.5C 29.4002,27.9431 28.4002,32.2764 27.5,36.5C 27.8097,30.2424 27.4764,24.0758 26.5,18C 36.5161,17.2111 45.3495,20.0445 53,26.5C 57.8074,35.3113 57.4741,43.978 52,52.5C 44.1919,62.811 34.6919,71.1443 23.5,77.5 Z M 24.5,47.5 C 21.3676,58.7358 18.5343,70.0691 16,81.5C 14.1667,83.3333 12.3333,85.1667 10.5,87C 11.448,87.4828 12.448,87.6495 13.5,87.5C 11.7499,88.4732 10.2499,89.8065 9,91.5C 8.66667,94.1667 8.33333,96.8333 8,99.5C 6.13126,86.642 7.13126,73.9754 11,61.5C 14.0708,52.9544 16.7375,44.2877 19,35.5C 17.092,46.9814 14.9253,58.4814 12.5,70C 12.8333,70.8333 13.1667,71.6667 13.5,72.5C 17.7485,64.4207 21.4152,56.0873 24.5,47.5 Z M 26.5,40.5 C 26.5905,43.1522 25.9238,45.4855 24.5,47.5C 24.4095,44.8478 25.0762,42.5145 26.5,40.5 Z M 12.5,110.5 C 10.9153,109.998 10.4153,108.998 11,107.5C 12.0386,108.244 12.5386,109.244 12.5,110.5 Z"/></g>
<g><path style="opacity:0.806" fill="#fefffe" d="M 150.5,102.5 C 147.45,95.726 144.95,88.726 143,81.5C 140.333,64.8349 137.667,48.1682 135,31.5C 133.423,25.1014 131.256,18.9348 128.5,13C 129,12.8333 129.5,12.6667 130,12.5C 132.477,14.7778 134.477,17.4445 136,20.5C 138.935,27.638 141.268,34.9714 143,42.5C 146.608,62.9377 149.775,83.271 152.5,103.5C 151.817,103.137 151.15,102.804 150.5,102.5 Z"/></g>
<g><path style="opacity:0.812" fill="#fefffe" d="M 578.5,101.5 C 575.308,94.0907 572.808,86.424 571,78.5C 568.837,65.1933 566.837,51.86 565,38.5C 563.584,29.8335 561.084,21.5002 557.5,13.5C 557.833,13.1667 558.167,12.8333 558.5,12.5C 561.215,15.0571 563.382,18.0571 565,21.5C 568.106,28.9244 570.44,36.5911 572,44.5C 575.38,64.163 578.38,83.8296 581,103.5C 580.292,102.619 579.458,101.953 578.5,101.5 Z"/></g>
<g><path style="opacity:0.834" fill="#fefffe" d="M 644.5,91.5 C 643.833,91.5 643.167,91.5 642.5,91.5C 642.672,90.5084 642.338,89.8417 641.5,89.5C 641.672,88.5084 641.338,87.8417 640.5,87.5C 639.671,82.8462 638.837,78.1796 638,73.5C 637.854,54.7588 637.188,36.0921 636,17.5C 639.501,21.4798 641.501,26.1465 642,31.5C 643.109,40.7965 643.776,50.1298 644,59.5C 652.414,44.3365 661.081,29.3365 670,14.5C 670.718,13.5494 671.551,13.3828 672.5,14C 670.865,22.2367 668.031,30.07 664,37.5C 658.084,47.6674 651.917,57.6674 645.5,67.5C 645.846,68.6956 646.346,68.6956 647,67.5C 653.027,57.4511 660.027,48.1178 668,39.5C 666.845,45.8344 664.511,51.8344 661,57.5C 652.55,67.4003 647.05,78.7336 644.5,91.5 Z"/></g>
<g><path style="opacity:0.805" fill="#fefffe" d="M 186.5,72.5 C 184.692,72.4914 183.025,72.9914 181.5,74C 186.892,75.5297 191.892,77.863 196.5,81C 204.286,87.7799 210.953,95.4466 216.5,104C 214.711,104.52 213.044,104.187 211.5,103C 203.167,96 194.833,89 186.5,82C 183.205,79.7693 179.705,77.9359 176,76.5C 175.333,74.8333 175.333,73.1667 176,71.5C 178.684,63.6183 180.851,55.6183 182.5,47.5C 179.654,55.5194 176.488,63.5194 173,71.5C 171.018,74.1597 170.185,73.6597 170.5,70C 172.115,60.0421 174.281,50.2087 177,40.5C 178.329,34.5365 178.996,28.5365 179,22.5C 174.331,41.8396 169.664,61.1729 165,80.5C 164.27,87.5484 164.603,94.5484 166,101.5C 166.114,96.6764 166.947,92.0097 168.5,87.5C 169.59,95.7169 171.59,103.717 174.5,111.5C 172.939,112.347 171.439,112.014 170,110.5C 169.667,111.167 169.333,111.833 169,112.5C 162.464,104.561 159.297,95.394 159.5,85C 159.961,77.0659 161.128,69.2325 163,61.5C 166.601,49.5295 170.101,37.5295 173.5,25.5C 173.167,24.8333 172.833,24.1667 172.5,23.5C 168.197,24.8776 164.03,26.5443 160,28.5C 159.333,27.8333 159.333,27.1667 160,26.5C 174.796,16.1466 190.963,13.3133 208.5,18C 224.678,24.8641 228.178,35.6974 219,50.5C 209.356,59.6533 198.523,66.9866 186.5,72.5 Z M 182.5,47.5 C 184.955,38.6801 185.955,29.6801 185.5,20.5C 194.639,20.2236 203.305,22.0569 211.5,26C 218.873,31.1581 220.373,37.6581 216,45.5C 206.449,55.6405 195.616,63.3072 183.5,68.5C 187.905,56.5445 190.572,44.2112 191.5,31.5C 191.132,27.9139 190.132,24.5806 188.5,21.5C 187.557,30.5367 185.557,39.2034 182.5,47.5 Z"/></g>
<g><path style="opacity:0.81" fill="#fefffe" d="M 599.5,77.5 C 598.662,77.8417 598.328,78.5084 598.5,79.5C 597.662,79.8417 597.328,80.5084 597.5,81.5C 596.069,82.7804 595.402,84.4471 595.5,86.5C 593.201,90.8804 591.368,95.5471 590,100.5C 589.077,98.9656 588.577,97.299 588.5,95.5C 589.351,90.0979 590.517,84.7645 592,79.5C 599.294,58.1121 607.46,37.1121 616.5,16.5C 616.721,24.593 615.554,32.593 613,40.5C 608.785,52.9836 604.285,65.317 599.5,77.5 Z"/></g>
<g><path style="opacity:0.82" fill="#fefffe" d="M 690.5,40.5 C 690.5,42.5 690.5,44.5 690.5,46.5C 689.054,64.3504 685.887,82.017 681,99.5C 680.667,99.1667 680.333,98.8333 680,98.5C 679.833,95 679.667,91.5 679.5,88C 682.157,67.8885 684.324,47.7218 686,27.5C 686.667,28.1667 687.333,28.8333 688,29.5C 688.918,33.2797 689.751,36.9464 690.5,40.5 Z"/></g>
<g><path style="opacity:0.805" fill="#fefffe" d="M 400.5,88.5 C 401.404,87.791 401.737,86.791 401.5,85.5C 402.404,84.791 402.737,83.791 402.5,82.5C 403.533,79.014 404.367,75.3474 405,71.5C 406.833,74.0017 407.666,76.8351 407.5,80C 405.113,96.0484 400.78,111.548 394.5,126.5C 393.337,121.198 393.171,115.864 394,110.5C 396.275,103.178 398.441,95.8446 400.5,88.5 Z"/></g>
<g><path style="opacity:0.708" fill="#fefffe" d="M 150.5,102.5 C 153.075,106.419 156.075,110.085 159.5,113.5C 159.167,113.833 158.833,114.167 158.5,114.5C 156.261,113.212 153.928,112.212 151.5,111.5C 150.833,111.5 150.5,111.167 150.5,110.5C 149.833,110.5 149.5,110.167 149.5,109.5C 148.833,109.5 148.5,109.167 148.5,108.5C 147.833,108.5 147.5,108.167 147.5,107.5C 146.833,107.5 146.5,107.167 146.5,106.5C 146.672,105.508 146.338,104.842 145.5,104.5C 144.346,101.521 143.18,98.5212 142,95.5C 141.333,93.5 141.333,91.5 142,89.5C 144.36,94.2404 147.193,98.5737 150.5,102.5 Z"/></g>
<g><path style="opacity:0.717" fill="#fefffe" d="M 248.5,106.5 C 247.791,105.596 246.791,105.263 245.5,105.5C 245.158,104.662 244.492,104.328 243.5,104.5C 243.158,103.662 242.492,103.328 241.5,103.5C 240.833,103.5 240.5,103.167 240.5,102.5C 239.374,101.142 239.374,99.8084 240.5,98.5C 249.5,103.833 258.5,103.833 267.5,98.5C 268.583,99.365 268.749,100.365 268,101.5C 262.271,105.924 255.771,107.591 248.5,106.5 Z"/></g>
</svg>
